# xmcd CD database file
#
# Track frame offsets:
#	150
#	22820
#	47545
#	68578
#	88380
#	107893
#	122782
#	140658
#	157963
#	175875
#	197900
#
# Disc length: 2889 seconds
#
# Revision: 1
# Processed by: cddbd v1.5PL3 Copyright (c) Steve Scherf et al.
# Submitted via: CDex 1.50
#
DISCID=940b470b
DTITLE=渡辺　美里 - Cafe Mocha 〜うたの木〜
DYEAR=2002
DGENRE=Pop
TTITLE0=Do You Realy Want To Hurt Me
TTITLE1=やさしく歌って 〜Killing Me Softly With His Song〜
TTITLE2=蘇州夜曲
TTITLE3=We're All Alone
TTITLE4=闇夜の国から
TTITLE5=Eternal Flame
TTITLE6=恋のバカンス
TTITLE7=あなたのとりこ 〜Irresistiblement〜
TTITLE8=悲しくてやりきれない
TTITLE9=翼をください
TTITLE10=Moon River
EXTD=YEAR: 2002
EXTT0=
EXTT1=
EXTT2=
EXTT3=
EXTT4=
EXTT5=
EXTT6=
EXTT7=
EXTT8=
EXTT9=
EXTT10=
PLAYORDER=
